<svg xmlns="http://www.w3.org/2000/svg" xmlns:xlink="http://www.w3.org/1999/xlink" viewBox="0 0 1920 1080" width="1920" height="1080" preserveAspectRatio="xMidYMid meet" style="width: 100%; height: 100%; transform: translate3d(0px, 0px, 0px);"><defs><clipPath id="__lottie_element_75"><rect width="1920" height="1080" x="0" y="0"></rect></clipPath></defs><g clip-path="url(#__lottie_element_75)"><g transform="matrix(1,0,0,1,960,540)" opacity="1" style="display: block;"><path fill="rgb(255,255,255)" fill-opacity="1" d=" M100,-50 C127.59500122070312,-50 150,-27.594999313354492 150,0 C150,27.594999313354492 127.59500122070312,50 100,50 C72.40499877929688,50 50,27.594999313354492 50,0 C50,-27.594999313354492 72.40499877929688,-50 100,-50z M-100,-50 C-72.40499877929688,-50 -50,-27.594999313354492 -50,0 C-50,27.594999313354492 -72.40499877929688,50 -100,50 C-127.59500122070312,50 -150,27.594999313354492 -150,0 C-150,-27.594999313354492 -127.59500122070312,-50 -100,-50z"></path></g><g transform="matrix(1,0,0,1,960,540)" opacity="1" style="display: block;"><path stroke-linecap="round" stroke-linejoin="miter" fill-opacity="0" stroke-miterlimit="4" stroke="rgb(255,255,255)" stroke-opacity="1" stroke-width="52" d=" M180.9080047607422,58.78099822998047 C162.72799682617188,83.76200103759766 133.25999450683594,100 100,100 C44.77199935913086,100 0,55.22800064086914 0,0"></path></g></g></svg>