<svg width="89.600006" height="40.034042" viewBox="0 0 89.6 40.034" fill="none" xmlns="http://www.w3.org/2000/svg" xmlns:xlink="http://www.w3.org/1999/xlink">
	<desc>
			Created with Pixso.
	</desc>
	<defs/>
	<path id="namepathdata" d="M21.7015 8.34546L14.8792 8.34546L14.8792 13.1834L22.5462 13.1834L22.5462 18.0214L16.6985 18.0214L16.6985 23.2826L22.5462 23.2826L22.5462 27.8787L16.6985 27.8787L16.6985 34.0471L42.2335 34.0471L42.2335 39.006L7.79695 39.006L6.36751 36.466L6.23756 39.4898L0 39.4898L0.974625 20.017L7.21219 20.017L6.82234 28.3625L9.87614 34.0471L10.5909 34.0471L10.5909 18.0214L0.0649719 18.0214L0.0649719 13.1834L8.38173 13.1834L8.38173 8.34546L1.49442 8.34546L1.49442 3.56799L8.38173 3.56799L8.38173 0.302368L14.8792 0.302368L14.8792 3.56799L21.7015 3.56799L21.7015 8.34546ZM24.3655 0.302368L31.2528 0.302368L31.2528 32.7771L24.3655 32.7771L24.3655 0.302368ZM33.0721 6.28934L39.3746 6.28934L41.9736 27.6368L35.6711 27.6368L33.0721 6.28934ZM89.6 18.6261L86.8711 18.6261L86.8711 24.6736L75.6954 24.6736L75.6954 36.3451L68.6782 40.034L64.8447 36.1637L68.2883 34.0471L68.2883 24.6736L56.9827 24.6736L56.9827 20.3194L68.2883 20.3194L68.2883 18.6261L56.6579 18.6261L56.6579 14.3929L68.2883 14.3929L68.2883 12.6996L57.5025 12.6996L57.5025 8.58736L68.2883 8.58736L68.2883 7.3174L75.6954 7.3174L75.6954 8.58736L86.8711 8.58736L86.8711 14.3929L89.6 14.3929L89.6 18.6261ZM48.1462 33.8052L48.1462 1.99565L65.4944 1.99565L64.6497 0L73.3563 0L74.201 1.99565L88.8203 1.99565L88.8203 6.41029L55.4234 6.41029L55.4234 38.885L47.9513 38.885L46.197 33.8052L48.1462 33.8052ZM55.9432 38.8246L59.9716 31.5676L66.469 31.5676L62.6355 38.8246L55.9432 38.8246ZM83.6873 31.6886L88.1056 38.7641L81.1533 38.7641L77.1899 31.6886L83.6873 31.6886ZM83.6873 30.8419L77.1249 30.8419L79.6589 25.3388L86.0264 25.3388L83.6873 30.8419ZM59.8416 30.7815L57.4376 25.3388L63.5452 25.3388L66.3391 30.7815L59.8416 30.7815ZM75.6954 12.6996L75.6954 14.3929L80.0487 14.3929L80.0487 12.6996L75.6954 12.6996ZM80.0487 20.3194L80.0487 18.6261L75.6954 18.6261L75.6954 20.3194L80.0487 20.3194Z" fill="#000000" fill-opacity="1.000000" fill-rule="nonzero"/>
</svg>
