<svg width="409.909180" height="15.845703" viewBox="0 0 409.909 15.8457" fill="none" xmlns="http://www.w3.org/2000/svg" xmlns:xlink="http://www.w3.org/1999/xlink">
	<desc>
			Created with Pixso.
	</desc>
	<defs/>
	<path id="Sports Rehabilitation Center" d="M147.323 3.84082L147.857 0L143.844 0L144.206 0.552002L142.573 11.8564L146.219 11.8564L147.133 5.66382L149.318 5.66382L148.404 11.8564L152.055 11.8564L153.154 3.84082L147.323 3.84082ZM178.883 3.84082L179.417 0L175.404 0L175.766 0.552002L174.133 11.8564L182.339 11.8564Q182.672 11.8564 182.943 11.7264Q183.121 11.641 183.271 11.4993Q183.348 11.4266 183.415 11.3462Q183.683 11.0266 183.805 10.5854L184.714 3.84082L178.883 3.84082ZM204.513 10.0334L205.979 0L201.776 0L202.328 0.552002L200.867 10.5854Q200.867 11.1072 201.112 11.459Q201.126 11.4794 201.141 11.4993Q201.214 11.5934 201.306 11.6627Q201.563 11.8564 201.967 11.8564L205.789 11.8564L204.513 10.0334ZM7.84863 7.48682L7.48682 9.67163L0.913818 9.67163L0.361816 8.92944L0 11.8564L9.48145 11.8564Q9.75943 11.8564 10.0071 11.7698Q10.0156 11.7668 10.0242 11.7637Q10.2086 11.6932 10.3689 11.5864Q10.4302 11.5455 10.488 11.4993Q10.6053 11.4029 10.6961 11.286Q10.7671 11.1948 10.822 11.0911Q10.8999 10.941 10.9294 10.782Q10.9473 10.6854 10.9473 10.5854L11.6663 5.66382L4.36963 5.66382L4.92163 2.927L8.40063 2.927L8.21045 4.20264L11.8564 4.20264L12.2183 1.104L1.46582 1.104L0.552002 7.48682L7.84863 7.48682ZM120.321 6.57764L121.045 1.104L109.189 1.104L109.741 1.82764L108.465 11.8564L112.116 11.8564L112.668 7.84863L116.314 11.8564L120.321 11.8564L116.485 7.84863L118.86 7.84863Q119.098 7.84863 119.316 7.78326Q119.357 7.77075 119.398 7.75586Q119.591 7.68351 119.756 7.57022Q119.813 7.53098 119.867 7.48682Q119.993 7.38298 120.087 7.25536Q120.149 7.17205 120.196 7.07861Q120.265 6.9478 120.296 6.80848Q120.321 6.69584 120.321 6.57764ZM191.507 3.28882L194.986 3.28882L195.348 1.104L191.697 1.104L191.507 3.28882ZM212.769 3.28882L216.248 3.28882L216.61 1.104L212.959 1.104L212.769 3.28882ZM264.109 3.28882L267.588 3.28882L267.95 1.104L264.299 1.104L264.109 3.28882ZM321.485 11.7832Q321.695 11.8564 321.93 11.8564L332.153 11.8564L332.51 9.30981L331.601 10.0334L324.495 10.0334L325.409 2.927L333.424 2.927L333.614 1.104L322.12 1.104L320.849 10.5854Q320.778 10.823 320.816 11.0418Q320.82 11.0666 320.826 11.0911Q320.867 11.2548 320.956 11.3875Q320.995 11.4465 321.044 11.4993Q321.063 11.5191 321.083 11.538Q321.233 11.6778 321.433 11.7637Q321.459 11.774 321.485 11.7832ZM66.4454 2.18481L66.8072 2.73682L66.6541 3.84082L65.1744 3.84082L64.9842 5.66382L66.4454 5.66382L65.7032 10.5854Q65.619 10.9435 65.7318 11.2215Q65.793 11.3721 65.912 11.4993Q66.0241 11.616 66.1586 11.6946Q66.4356 11.8564 66.8072 11.8564L70.815 11.8564L71.1768 10.0334L69.3539 10.0334L69.9801 5.66382L72.0907 5.66382L72.471 3.84082L70.2074 3.84082L70.4532 2.18481L66.4454 2.18481ZM223.59 2.18481L223.952 2.73682L223.799 3.84082L222.319 3.84082L222.129 5.66382L223.59 5.66382L222.848 10.5854Q222.764 10.9435 222.877 11.2215Q222.938 11.3721 223.057 11.4993Q223.169 11.616 223.304 11.6946Q223.581 11.8564 223.952 11.8564L227.96 11.8564L228.322 10.0334L226.499 10.0334L227.125 5.66382L229.236 5.66382L229.616 3.84082L227.352 3.84082L227.598 2.18481L223.59 2.18481ZM251.673 2.18481L252.035 2.73682L251.882 3.84082L250.402 3.84082L250.212 5.66382L251.673 5.66382L250.931 10.5854Q250.847 10.9435 250.96 11.2215Q251.021 11.3721 251.14 11.4993Q251.252 11.616 251.387 11.6946Q251.664 11.8564 252.035 11.8564L256.043 11.8564L256.405 10.0334L254.582 10.0334L255.208 5.66382L257.319 5.66382L257.699 3.84082L255.435 3.84082L255.681 2.18481L251.673 2.18481ZM372.612 2.18481L372.974 2.73682L372.821 3.84082L371.341 3.84082L371.151 5.66382L372.612 5.66382L371.87 10.5854Q371.786 10.9435 371.899 11.2215Q371.96 11.3721 372.079 11.4993Q372.191 11.616 372.326 11.6946Q372.603 11.8564 372.974 11.8564L376.982 11.8564L377.344 10.0334L375.521 10.0334L376.147 5.66382L378.258 5.66382L378.638 3.84082L376.374 3.84082L376.62 2.18481L372.612 2.18481ZM112.835 6.02563L113.215 2.927L117.227 2.927L116.866 6.02563L112.835 6.02563ZM28.1135 10.5854L29.0227 3.84082L18.9939 3.84082L19.5227 4.39282L17.8342 15.8457L21.4802 15.8457L22.1064 11.8564L26.6477 11.8564Q26.8564 11.8564 27.093 11.7637Q27.3342 11.6663 27.5522 11.4993Q27.6895 11.3912 27.801 11.2612Q27.8666 11.1846 27.9233 11.1003Q27.9798 11.0148 28.0204 10.9224Q28.0901 10.7641 28.1135 10.5854ZM44.1935 3.97904Q43.9724 3.84082 43.6649 3.84082L35.4544 3.84082L34.5452 10.5854Q34.5452 11.1072 34.7897 11.459Q34.8039 11.4794 34.8189 11.4993Q34.8923 11.5934 34.9843 11.6627Q35.2415 11.8564 35.6446 11.8564L43.855 11.8564L44.7642 5.28345Q44.7642 4.90668 44.6367 4.57962Q44.5774 4.4275 44.4905 4.28613Q44.3693 4.08891 44.1935 3.97904ZM54.295 6.38745L54.6569 3.84082L50.9691 3.84082L51.3495 4.36963L50.2872 11.8564L53.9332 11.8564L54.295 9.30981L60.5062 3.84082L56.8602 3.84082L54.295 6.38745ZM83.441 8.76245L83.2694 10.0334L78.5194 10.0334L77.972 9.30981L77.6102 11.8564L84.9069 11.8564Q85.0739 11.8564 85.2341 11.8232Q85.5986 11.7474 85.9274 11.4993Q86.2227 11.2756 86.3869 10.9793Q86.4883 10.7962 86.5397 10.5854L86.92 6.93481L81.618 6.93481L81.8082 5.66382L83.993 5.66382L83.9374 6.19727L87.0917 6.19727L87.4535 3.84082L78.7096 3.84082L77.972 8.76245L83.441 8.76245ZM130.496 8.57227L136.332 8.57227L137.051 3.84082L127.569 3.84082L126.66 10.5854Q126.66 11.1072 126.905 11.459Q126.919 11.4794 126.934 11.4993Q127.007 11.5934 127.099 11.6627Q127.356 11.8564 127.76 11.8564L135.78 11.8564L136.332 9.30981L135.418 10.0334L130.306 10.0334L130.496 8.57227ZM163.046 5.66382L164.985 5.66382L164.697 7.10645L159.228 7.10645L158.676 10.5854Q158.676 11.1072 158.921 11.459Q158.935 11.4794 158.95 11.4993Q159.023 11.5934 159.115 11.6627Q159.372 11.8564 159.776 11.8564L168.348 11.8564L167.606 10.9473L168.71 3.84082L159.776 3.84082L159.228 6.38745L162.874 6.38745L163.046 5.66382ZM193.882 11.8564L194.986 3.84082L190.788 3.84082L191.336 4.36963L190.236 11.8564L193.882 11.8564ZM215.144 11.8564L216.248 3.84082L212.05 3.84082L212.598 4.36963L211.498 11.8564L215.144 11.8564ZM239.125 5.66382L241.064 5.66382L240.776 7.10645L235.307 7.10645L234.755 10.5854Q234.755 11.1072 235 11.459Q235.014 11.4794 235.029 11.4993Q235.102 11.5934 235.194 11.6627Q235.451 11.8564 235.855 11.8564L244.427 11.8564L243.685 10.9473L244.789 3.84082L235.855 3.84082L235.307 6.38745L238.953 6.38745L239.125 5.66382ZM266.484 11.8564L267.588 3.84082L263.39 3.84082L263.938 4.36963L262.838 11.8564L266.484 11.8564ZM283.118 3.97904Q282.896 3.84082 282.589 3.84082L274.378 3.84082L273.469 10.5854Q273.469 11.1072 273.714 11.459Q273.728 11.4794 273.743 11.4993Q273.816 11.5934 273.908 11.6627Q274.165 11.8564 274.569 11.8564L282.779 11.8564L283.688 5.28345Q283.688 4.90668 283.561 4.57962Q283.501 4.4275 283.415 4.28613Q283.293 4.08891 283.118 3.97904ZM298.693 11.8564L299.792 3.84082L289.763 3.84082L290.311 4.36963L289.211 11.8564L292.857 11.8564L293.771 5.66382L295.956 5.66382L295.042 11.8564L298.693 11.8564ZM342.971 8.57227L348.807 8.57227L349.526 3.84082L340.044 3.84082L339.135 10.5854Q339.135 11.1072 339.38 11.459Q339.394 11.4794 339.409 11.4993Q339.482 11.5934 339.574 11.6627Q339.831 11.8564 340.235 11.8564L348.255 11.8564L348.807 9.30981L347.893 10.0334L342.781 10.0334L342.971 8.57227ZM364.53 11.8564L365.629 3.84082L355.6 3.84082L356.148 4.36963L355.048 11.8564L358.694 11.8564L359.608 5.66382L361.793 5.66382L360.879 11.8564L364.53 11.8564ZM387.613 8.57227L393.449 8.57227L394.168 3.84082L384.686 3.84082L383.777 10.5854Q383.777 11.1072 384.022 11.459Q384.036 11.4794 384.051 11.4993Q384.124 11.5934 384.216 11.6627Q384.473 11.8564 384.877 11.8564L392.897 11.8564L393.449 9.30981L392.535 10.0334L387.423 10.0334L387.613 8.57227ZM403.698 6.38745L404.06 3.84082L400.372 3.84082L400.752 4.36963L399.69 11.8564L403.336 11.8564L403.698 9.30981L409.909 3.84082L406.263 3.84082L403.698 6.38745ZM22.3152 10.2051L23.0017 5.66382L25.1865 5.66382L24.5232 10.2051L22.3152 10.2051ZM38.1912 10.0334L38.9149 5.66382L41.1182 5.66382L40.376 10.0334L38.1912 10.0334ZM130.858 6.74463L131.03 5.66382L133.233 5.66382L133.043 6.74463L130.858 6.74463ZM178.067 10.0334L178.693 5.66382L180.878 5.66382L180.233 10.0334L178.067 10.0334ZM277.115 10.0334L277.839 5.66382L280.042 5.66382L279.3 10.0334L277.115 10.0334ZM343.333 6.74463L343.505 5.66382L345.708 5.66382L345.518 6.74463L343.333 6.74463ZM387.975 6.74463L388.147 5.66382L390.35 5.66382L390.16 6.74463L387.975 6.74463ZM162.322 10.0334L162.512 8.92944L164.335 8.92944L164.145 10.0334L162.322 10.0334ZM238.401 10.0334L238.591 8.92944L240.414 8.92944L240.224 10.0334L238.401 10.0334Z" fill="#000000" fill-opacity="1.000000" fill-rule="evenodd"/>
</svg>
