<svg width="332.553711" height="35.998535" viewBox="0 0 332.554 35.9985" fill="none" xmlns="http://www.w3.org/2000/svg" xmlns:xlink="http://www.w3.org/1999/xlink">
	<desc>
			Created with Pixso.
	</desc>
	<defs/>
	<path id="运动康复中心" d="M81.1079 10.4492L83.8057 10.4492L77.5068 35.9985L85.0996 35.9985L91.4106 10.4492L93.4614 10.4492L90.5073 31.3965L86.1006 35.9985L94.0596 35.9985Q94.7851 35.9985 95.4238 35.7632Q96.0533 35.5313 96.5986 35.0708Q97.1323 34.6251 97.4659 34.0612Q97.8268 33.4511 97.9536 32.7026L101.75 5.70068L92.6069 5.70068L94.0107 0L84.5015 0L86.0029 1.69678L85.002 5.70068L81.8037 5.70068L81.1079 10.4492ZM119.601 2.39258L121.151 4.15039L114.401 35.9497L123.007 35.9497L129.257 6.39648L159.457 6.39648L160.006 2.39258L146.701 2.39258L147.055 0L135.653 0L137.252 1.89209L137.155 2.39258L119.601 2.39258ZM217.604 1.45264L191.053 1.45264L192.152 0L178.858 0L179.859 1.19629L176.051 6.15234L187.452 6.15234L188.16 5.2002L217.054 5.2002L217.604 1.45264ZM232.11 23.2422L247.308 23.2422L245.501 35.9985L255.01 35.9985L256.805 23.2422L272.002 23.2422L274.31 7.14111L259.051 7.14111L260.101 0L248.711 0L250.311 1.89209L249.554 7.14111L234.405 7.14111L232.11 23.2422ZM322.507 11.6455L322.007 0.0976562L314.402 0.0976562L314.902 11.6455L322.507 11.6455ZM14.4531 6.65283L12.4023 0.952148L4.80957 0.952148L6.86035 6.65283L14.4531 6.65283ZM41.2109 5.70068L41.8579 1.00098L19.0552 1.00098L18.4082 5.70068L41.2109 5.70068ZM78.8008 6.65283L79.46 1.89209L62.3579 1.89209L61.7109 6.65283L78.8008 6.65283ZM320.457 29.1992L309.055 29.1992L312.803 2.50244L302.402 2.50244L304.05 4.3457L299.753 34.8999L321.555 34.8999L322.703 26.8921L320.457 29.1992ZM138.107 12.2925L137.96 13.5498L129.11 13.5498L128.561 17.4438L137.411 17.4438L137.252 18.4448L129.55 18.4448L128.952 22.4487L136.654 22.4487L135.36 31.897L131.601 35.498L140.756 35.498Q141.179 35.498 141.576 35.3963Q142.393 35.1867 143.1 34.5459Q143.81 33.902 144.134 33.1017Q144.29 32.7187 144.357 32.2998L145.7 22.4487L155.954 22.4487L156.649 17.4438L158.81 17.4438L159.359 13.5498L157.211 13.5498L157.907 8.59375L147.653 8.59375L147.909 6.99463L138.852 6.99463L138.607 8.59375L130.856 8.59375L130.355 12.2925L138.107 12.2925ZM215.003 19.9463L216.81 7.14111L176.905 7.14111L175.111 19.9463L215.003 19.9463ZM2.6001 30.2002L0 35.144L8.55713 35.144L9.30176 33.6914L14.2578 35.144L40.8569 35.144L41.5039 30.3955L18.2495 30.3955L11.4014 28.3447L14.209 8.54492L3.75977 8.54492L3.05176 13.2935L4.95605 13.2935L2.6001 30.2002ZM331.504 31.7017L332.554 8.94775L324.851 8.94775L323.801 31.7017L331.504 31.7017ZM297.41 28.9429L301.609 10.144L294.004 10.144L289.805 28.9429L297.41 28.9429ZM39.9048 28.4912L38.501 18.042L30.9082 18.042L31.5552 22.998L24.6582 23.291L29.0039 15.1978L41.7603 15.1978L42.4072 10.4492L15.8081 10.4492L15.1611 15.1978L19.5068 15.1978L14.9048 23.7427L14.3066 28.0518L32.1045 27.1973L32.2998 28.4912L39.9048 28.4912ZM206.605 11.9019L185.707 11.9019L185.853 10.9497L206.751 10.9497L206.605 11.9019ZM76.103 35.9985L76.4082 23.7427L68.8032 23.7427L68.6567 29.9927L65.1533 30.3955L69.7065 16.1499L78.4102 16.1499L79.106 11.4014L60.0996 11.4014L59.4038 16.1499L62.1016 16.1499L57.3042 31.3477L56.6084 35.9985L68.5103 34.6436L68.5103 35.9985L76.103 35.9985ZM248.907 11.9019L247.955 18.4937L242.303 18.4937L243.206 11.9019L248.907 11.9019ZM257.452 18.4937L258.404 11.9019L264.104 11.9019L263.201 18.4937L257.452 18.4937ZM147.006 13.5498L147.152 12.2925L149.911 12.2925L149.704 13.5498L147.006 13.5498ZM206.104 15.1978L206.007 16.1499L185.108 16.1499L185.206 15.1978L206.104 15.1978ZM149.203 17.4438L149.057 18.4448L146.31 18.4448L146.457 17.4438L149.203 17.4438ZM193.055 34.1431L199.354 35.9985L212.708 35.9985L213.258 32.2998L209.95 32.2998L205.104 30.896L213.807 28.4912L214.71 21.8506L185.902 21.8506L186.354 20.8984L174.952 20.8984L176.161 22.3511L172.804 29.4434L177.162 29.4434L181.91 30.8472L176.661 32.2998L173.353 32.2998L172.804 35.9985L186.207 35.9985L193.055 34.1431ZM126.901 23.5962L128.5 28.2471L135.153 28.2471L133.651 23.5962L126.901 23.5962ZM148.556 23.5962L145.81 28.2471L152.45 28.2471L155.355 23.5962L148.556 23.5962ZM193.861 28.2959L185.108 25.647L203.456 25.647L193.861 28.2959ZM128.402 28.9917L123.556 35.4492L130.209 35.4492L135.055 28.9917L128.402 28.9917ZM145.7 28.9917L148.751 35.4492L155.404 35.4492L152.353 28.9917L145.7 28.9917Z" fill="#000000" fill-opacity="1.000000" fill-rule="evenodd"/>
</svg>
