<?xml version="1.0" standalone="no"?><!DOCTYPE svg PUBLIC "-//W3C//DTD SVG 1.1//EN" "http://www.w3.org/Graphics/SVG/1.1/DTD/svg11.dtd"><svg t="1710141886881" class="icon" viewBox="0 0 1024 1024" version="1.1" xmlns="http://www.w3.org/2000/svg" p-id="1316" xmlns:xlink="http://www.w3.org/1999/xlink" width="200" height="200"><path d="M511.999974 511.999974m-511.999974 0a511.999974 511.999974 0 1 0 1023.999949 0 511.999974 511.999974 0 1 0-1023.999949 0Z" fill="#F79D00" p-id="1317"></path><path d="M856.714197 376.632301l-284.769266 28.477439-398.6995 28.482558 243.066868 581.468131A514.099174 514.099174 0 0 0 511.999974 1023.999949c282.767346 0 511.999974-229.232629 511.999975-511.999975l-167.285752-135.367673z" fill="#EA7E08" p-id="1318"></path><path d="M514.979814 548.106213c-70.420476 0-127.523834 57.108477-127.523833 127.544313 0 70.435836 57.103357 127.544314 127.523833 127.544314 70.456316 0 127.569914-57.103357 127.569914-127.544314 0-70.435836-57.113597-127.544314-127.569914-127.544313z m0 156.031992a28.482559 28.482559 0 1 1 0.02048-56.965117 28.482559 28.482559 0 0 1-0.02048 56.965117z" fill="#ED5564" p-id="1319"></path><path d="M173.245431 376.632301h683.468766v56.959997H173.245431z" fill="#434A54" p-id="1320"></path><path d="M614.661089 376.632301a14.233599 14.233599 0 0 0 28.467199 0h-28.467199zM557.695972 376.632301a14.254079 14.254079 0 0 0 28.497919 0h-28.497919zM500.751335 376.632301a14.243839 14.243839 0 0 0 28.477439 0h-28.477439zM443.796458 376.632301a14.233599 14.233599 0 0 0 28.467198 0h-28.467198zM386.831341 376.632301a14.248959 14.248959 0 0 0 28.487678 0h-28.487678z" fill="#656D78" p-id="1321"></path><path d="M223.093749 333.921263a21.355519 21.355519 0 0 0-21.360639 21.355519v99.676155a21.360639 21.360639 0 0 0 42.716158 0V355.276782a21.350399 21.350399 0 0 0-21.355519-21.355519z" fill="#DA4453" p-id="1322"></path><path d="M265.809907 276.951026a21.360639 21.360639 0 0 0-21.355519 21.355519v213.611509a21.350399 21.350399 0 0 0 42.711038 0V298.306545a21.355519 21.355519 0 0 0-21.355519-21.355519z" fill="#ED5564" p-id="1323"></path><path d="M308.526065 276.951026a21.360639 21.360639 0 0 0-21.355519 21.355519v213.611509a21.360639 21.360639 0 0 0 42.716158 0V298.306545c0-11.775999-9.55392-21.355519-21.360639-21.355519zM806.88124 333.921263a21.375999 21.375999 0 0 1 21.360639 21.355519v99.676155a21.375999 21.375999 0 0 1-21.360639 21.355519 21.365759 21.365759 0 0 1-21.355519-21.355519V355.276782a21.370879 21.370879 0 0 1 21.355519-21.355519z" fill="#DA4453" p-id="1324"></path><path d="M764.165082 276.951026a21.381119 21.381119 0 0 1 21.360639 21.355519v213.611509a21.370879 21.370879 0 0 1-21.360639 21.350399 21.365759 21.365759 0 0 1-21.355519-21.350399V298.306545c0-11.775999 9.56928-21.355519 21.355519-21.355519z" fill="#ED5564" p-id="1325"></path><path d="M721.448924 276.951026a21.375999 21.375999 0 0 1 21.360639 21.355519v213.611509c0 11.781119-9.5744 21.350399-21.360639 21.350399a21.365759 21.365759 0 0 1-21.355519-21.350399V298.306545c0-11.775999 9.56416-21.355519 21.355519-21.355519zM514.979814 817.443799c-78.177276 0-141.772793-63.615997-141.772793-141.793273s63.600637-141.772793 141.772793-141.772793 141.788153 63.595517 141.788153 141.772793-63.610877 141.793273-141.788153 141.793273z m0-255.093747c-62.448637 0-113.300474 50.836477-113.300474 113.300474s50.851837 113.300474 113.300474 113.300475c62.489597 0 113.305594-50.831357 113.305595-113.300475s-50.815997-113.300474-113.305595-113.300474z" fill="#DA4453" p-id="1326"></path><path d="M514.979814 718.366684c-23.546879 0-42.721278-19.174399-42.721278-42.721278 0-23.551999 19.169279-42.716158 42.721278-42.716158 23.572479 0 42.716158 19.159039 42.716158 42.716158 0 23.546879-19.143679 42.721278-42.716158 42.721278z m0-56.944637a14.243839 14.243839 0 0 0-14.228479 14.228479 14.243839 14.243839 0 1 0 28.477439 0 14.248959 14.248959 0 0 0-14.24896-14.228479z" fill="#DA4453" p-id="1327"></path></svg>