<?xml version="1.0" standalone="no"?><!DOCTYPE svg PUBLIC "-//W3C//DTD SVG 1.1//EN" "http://www.w3.org/Graphics/SVG/1.1/DTD/svg11.dtd"><svg t="1710141890263" class="icon" viewBox="0 0 1024 1024" version="1.1" xmlns="http://www.w3.org/2000/svg" p-id="1479" xmlns:xlink="http://www.w3.org/1999/xlink" width="200" height="200"><path d="M512 512m-512 0a512 512 0 1 0 1024 0 512 512 0 1 0-1024 0Z" fill="#ED6B48" p-id="1480"></path><path d="M813.9264 349.44L217.344 823.7568 345.6 996.352c52.1728 17.92 108.1344 27.648 166.4 27.648 282.7776 0 512-229.2224 512-512l-210.0736-162.56z" fill="#CE523E" p-id="1481"></path><path d="M238.592 218.5728h417.5872v567.296H238.592z" fill="#BFBFBF" p-id="1482"></path><path d="M538.0608 372.6848h283.648v427.6224h-283.648z" fill="#BFBFBF" p-id="1483"></path><path d="M483.1744 728.2176c0 23.7568-19.456 43.264-43.264 43.264-23.808 0-43.264-19.5072-43.264-43.264 0-23.808 19.456-43.264 43.264-43.264 23.808 0 43.264 19.5072 43.264 43.264v-72.0896H266.9056c-7.936 0-14.3872-6.5024-14.3872-14.3872V295.7824c0-7.936 6.5024-14.4384 14.3872-14.4384h345.9584c7.8848 0 14.4384 6.5024 14.4384 14.4384v53.6064h57.6512V209.2544c0-23.7568-19.456-43.264-43.264-43.264H238.1312c-23.808 0-43.264 19.456-43.264 43.264v576.6144c0 23.7568 19.456 43.264 43.264 43.264h246.4768c-1.024-4.608-1.4336-9.5232-1.4336-14.3872v-86.528zM429.6704 227.8912c5.3248-5.3248 15.104-5.3248 20.4288 0 2.6112 2.7136 4.1984 6.5024 4.1984 10.24s-1.5872 7.4752-4.1984 10.24c-2.7136 2.6112-6.4512 4.1984-10.24 4.1984-3.7376 0-7.4752-1.5872-10.24-4.1984-2.6112-2.7136-4.1984-6.4512-4.1984-10.24 0.1024-3.9424 1.6384-7.5264 4.2496-10.24z" fill="#212121" p-id="1484"></path><path d="M785.8688 338.9952h-230.656c-23.808 0-43.264 19.456-43.264 43.264v432.4352c0 23.7568 19.456 43.264 43.264 43.264h230.656c23.7568 0 43.264-19.5072 43.264-43.264V382.2592c0-23.7568-19.456-43.264-43.264-43.264z m-125.5424 61.8496c5.4784-5.3248 15.0016-5.3248 20.48 0 2.6112 2.7648 4.1984 6.5024 4.1984 10.24s-1.4336 7.4752-4.1984 10.24c-2.7136 2.6112-6.5024 4.1984-10.24 4.1984s-7.4752-1.5872-10.24-4.1984c-2.56-2.7648-4.1472-6.5024-4.1472-10.24-0.0512-3.8912 1.536-7.5264 4.1472-10.24z m-57.6512 0c5.3248-5.3248 15.1552-5.3248 20.4288 0 2.6112 2.7648 4.1984 6.5024 4.1984 10.24s-1.5872 7.4752-4.1984 10.24c-2.7136 2.7136-6.4512 4.1984-10.24 4.1984-3.7376 0-7.4752-1.4336-10.24-4.1984-2.56-2.7648-4.1984-6.5024-4.1984-10.24 0.0512-3.7376 1.6384-7.5264 4.2496-10.24z m78.08 395.264c-2.7136 2.6112-6.5024 4.1984-10.24 4.1984s-7.4752-1.5872-10.24-4.1984c-2.56-2.7136-4.1472-6.4512-4.1472-10.24 0-3.7376 1.5872-7.5264 4.1472-10.24 5.376-5.3248 15.1552-5.3248 20.48 0 2.6112 2.7136 4.1984 6.5024 4.1984 10.24 0.0512 3.7888-1.3824 7.5264-4.1984 10.24z m90.7264-67.8912c0 7.8848-6.5024 14.3872-14.3872 14.3872h-172.9536c-7.936 0-14.4384-6.5024-14.4384-14.3872V468.736c0-7.936 6.4512-14.3872 14.4384-14.3872h172.9536c7.8848 0 14.3872 6.4512 14.3872 14.3872v259.4816z" fill="#212121" p-id="1485"></path><path d="M483.1744 656.128h63.8464v172.9536H483.1744z" fill="#212121" p-id="1486"></path></svg>