<?xml version="1.0" standalone="no"?><!DOCTYPE svg PUBLIC "-//W3C//DTD SVG 1.1//EN" "http://www.w3.org/Graphics/SVG/1.1/DTD/svg11.dtd"><svg t="1710208565692" class="icon" viewBox="0 0 2451 1024" version="1.1" xmlns="http://www.w3.org/2000/svg" p-id="5111" data-spm-anchor-id="a313x.search_index.0.i0.40f23a81pJ40Vo" xmlns:xlink="http://www.w3.org/1999/xlink" width="478.7109375" height="200"><path d="M2063.798036 909.105189H330.322581c-109.15007 0-198.193548-89.043478-198.193549-198.193548V386.333801c0-109.15007 89.043478-196.757363 198.193549-196.757363h1732.03927c109.15007 0 198.193548 89.043478 198.193549 196.757363v324.57784c0 109.15007-89.043478 198.193548-196.757364 198.193548zM330.322581 209.683029c-97.660589 0-176.650771 78.990182-176.650772 175.214587v324.57784c0 97.660589 78.990182 176.650771 176.650772 176.650771h1732.03927c97.660589 0 176.650771-78.990182 176.650772-176.650771V386.333801c0-97.660589-78.990182-175.214586-176.650772-175.214586H330.322581z" fill="#C53545" p-id="5112" data-spm-anchor-id="a313x.search_index.0.i1.40f23a81pJ40Vo" class="selected"></path><path d="M2121.245442 873.200561H387.769986c-109.15007 0-198.193548-89.043478-198.193548-198.193548V313.088359c0-109.15007 89.043478-196.757363 198.193548-196.757363h1732.039271c109.15007 0 198.193548 89.043478 198.193548 196.757363v363.354839c0 109.15007-89.043478 196.757363-196.757363 196.757363zM387.769986 137.873773c-97.660589 0-176.650771 78.990182-176.650771 175.214586v363.354839c0 97.660589 78.990182 176.650771 176.650771 176.650771h1732.039271c97.660589 0 176.650771-78.990182 176.650771-176.650771V313.088359c0-97.660589-78.990182-175.214586-176.650771-175.214586H387.769986z" fill="#C53545" p-id="5113" data-spm-anchor-id="a313x.search_index.0.i3.40f23a81pJ40Vo" class="selected"></path><path d="M2063.798036 873.200561H330.322581c-109.15007 0-198.193548-89.043478-198.193549-198.193548V351.865358c0-109.15007 89.043478-196.757363 198.193549-196.757364h1732.03927c109.15007 0 198.193548 89.043478 198.193549 196.757364v324.57784c0 109.15007-89.043478 196.757363-196.757364 196.757363zM330.322581 175.214586c-97.660589 0-176.650771 78.990182-176.650772 175.214587V675.007013c0 97.660589 78.990182 176.650771 176.650772 176.650771h1732.03927c97.660589 0 176.650771-78.990182 176.650772-176.650771V351.865358c0-97.660589-78.990182-175.214586-176.650772-175.214587H330.322581z" fill="#C53545" p-id="5114" data-spm-anchor-id="a313x.search_index.0.i2.40f23a81pJ40Vo" class="selected"></path><path d="M196.312146 508.754222l125.924712-125.924713 10.153829 10.153829-125.924712 125.924712zM199.816438 589.367293l122.88-122.88 10.153828 10.153829-122.88 122.88zM191.61582 683.681571l138.117925-138.103563 10.153829 10.153829-138.117925 138.103563zM215.226704 759.497784l138.103562-138.103562 10.153829 10.153828-138.103562 138.103563zM253.860084 807.997756l138.103563-138.117924 10.153828 10.153829-138.103562 138.117924zM315.716578 844.218345l138.117924-138.103562 10.153829 10.153829-138.103562 138.117924zM407.388275 857.919551l138.117924-138.103562 10.153829 10.153829-138.117924 138.103562zM523.6331 857.704123l119.835287-119.835287 10.153829 10.168191-119.835288 119.820925zM627.182048 858.077532l119.835287-119.820926 10.168191 10.153829-119.835288 119.820925zM718.092567 861.079158l87.320056-87.320056 10.153829 10.139467-87.320056 87.334418zM830.158093 861.94087l119.835287-119.835288 10.153829 10.168191-119.835288 119.820925zM921.255316 857.21582l119.820925-119.835287 10.153829 10.153829-119.820926 119.835287zM1025.120224 858.465302l138.117925-138.117925 10.153829 10.153829-138.103563 138.117924zM1115.657335 861.208415l119.835288-119.835287 10.153829 10.16819-119.835288 119.820926zM1226.47338 861.064797l137.098233-137.098233 10.153829 10.153829-137.083871 137.098233zM1332.13352 857.546143l119.835288-119.820926 10.153829 10.153829-119.835288 119.835288zM1435.69683 857.933913l119.820926-119.835287 10.168191 10.153828-119.835288 119.835288zM1526.53554 861.5531l119.835287-119.835288 10.153829 10.153829-119.835287 119.835287zM1705.240056 861.739804l95.463226-95.463226 10.153829 10.153829-95.463226 95.463226zM1638.644151 861.251501l73.116186-73.116185 10.153828 10.153828-73.101823 73.101824z" fill="#C53545" p-id="5115" data-spm-anchor-id="a313x.search_index.0.i4.40f23a81pJ40Vo" class="selected"></path></svg>